{
	"asset":{
		"generator":"Khronos glTF Blender I/O v4.5.48",
		"version":"2.0"
	},
	"scene":0,
	"scenes":[
		{
			"name":"Scene",
			"nodes":[
				0,
				1
			]
		}
	],
	"nodes":[
		{
			"mesh":0,
			"name":"Cube",
			"scale":[
				6.477867126464844,
				0.09999999403953552,
				2.978379726409912
			],
			"translation":[
				35.83628845214844,
				0,
				-9.041297912597656
			]
		},
		{
			"mesh":1,
			"name":"Cube.006",
			"rotation":[
				0,
				-0.9914448857307434,
				0.13052618503570557,
				1.6152688431247952e-07
			],
			"scale":[
				0.2007606029510498,
				2.65594220161438,
				0.2007606029510498
			],
			"translation":[
				41.33628845214844,
				-2.721579074859619,
				-6.8412981033325195
			]
		}
	],
	"materials":[
		{
			"doubleSided":true,
			"name":"Material.004",
			"pbrMetallicRoughness":{
				"baseColorFactor":[
					0.8018804788589478,
					0.354238897562027,
					0.14808687567710876,
					1
				],
				"metallicFactor":0,
				"roughnessFactor":0.7296072244644165
			}
		},
		{
			"doubleSided":true,
			"name":"Material.003",
			"pbrMetallicRoughness":{
				"baseColorFactor":[
					0.07680848985910416,
					0.07680848985910416,
					0.07680848985910416,
					1
				],
				"metallicFactor":0,
				"roughnessFactor":0.5
			}
		}
	],
	"meshes":[
		{
			"name":"Cube.122",
			"primitives":[
				{
					"attributes":{
						"POSITION":0,
						"NORMAL":1,
						"TEXCOORD_0":2
					},
					"indices":3,
					"material":0
				}
			]
		},
		{
			"name":"Cube.125",
			"primitives":[
				{
					"attributes":{
						"POSITION":4,
						"NORMAL":5,
						"TEXCOORD_0":6
					},
					"indices":7,
					"material":1
				}
			]
		}
	],
	"accessors":[
		{
			"bufferView":0,
			"componentType":5126,
			"count":24,
			"max":[
				1,
				1,
				1
			],
			"min":[
				-1,
				-1,
				-1
			],
			"type":"VEC3"
		},
		{
			"bufferView":1,
			"componentType":5126,
			"count":24,
			"type":"VEC3"
		},
		{
			"bufferView":2,
			"componentType":5126,
			"count":24,
			"type":"VEC2"
		},
		{
			"bufferView":3,
			"componentType":5123,
			"count":36,
			"type":"SCALAR"
		},
		{
			"bufferView":4,
			"componentType":5126,
			"count":292,
			"max":[
				57.55235290527344,
				1.3762521743774414,
				28.717580795288086
			],
			"min":[
				-1.2756385803222656,
				-1.0188970565795898,
				-2.2512078285217285
			],
			"type":"VEC3"
		},
		{
			"bufferView":5,
			"componentType":5126,
			"count":292,
			"type":"VEC3"
		},
		{
			"bufferView":6,
			"componentType":5126,
			"count":292,
			"type":"VEC2"
		},
		{
			"bufferView":7,
			"componentType":5123,
			"count":576,
			"type":"SCALAR"
		}
	],
	"bufferViews":[
		{
			"buffer":0,
			"byteLength":288,
			"byteOffset":0,
			"target":34962
		},
		{
			"buffer":0,
			"byteLength":288,
			"byteOffset":288,
			"target":34962
		},
		{
			"buffer":0,
			"byteLength":192,
			"byteOffset":576,
			"target":34962
		},
		{
			"buffer":0,
			"byteLength":72,
			"byteOffset":768,
			"target":34963
		},
		{
			"buffer":0,
			"byteLength":3504,
			"byteOffset":840,
			"target":34962
		},
		{
			"buffer":0,
			"byteLength":3504,
			"byteOffset":4344,
			"target":34962
		},
		{
			"buffer":0,
			"byteLength":2336,
			"byteOffset":7848,
			"target":34962
		},
		{
			"buffer":0,
			"byteLength":1152,
			"byteOffset":10184,
			"target":34963
		}
	],
	"buffers":[
		{
			"byteLength":11336,
			"uri":"table.bin"
		}
	]
}
